<svg width="24" height="24" viewBox="0 0 24 24" fill="none" xmlns="http://www.w3.org/2000/svg">
    <path
        d="M11.1438 23C8.92809 23 7.18352 22.4339 5.91011 21.3018C4.6367 20.1439 4 18.5871 4 16.6316C4 14.6503 4.6367 13.0936 5.91011 11.9614C7.18352 10.8292 8.90262 10.2632 11.0674 10.2632H17.5618V8.14035C17.5618 6.82807 17.167 5.82456 16.3775 5.12983C15.6135 4.40936 14.5184 4.04912 13.0921 4.04912C11.8442 4.04912 10.8 4.3193 9.95955 4.85965C9.1191 5.37427 8.63521 6.08187 8.50787 6.98246H5.06966C5.29888 5.15556 6.15206 3.70175 7.62921 2.62105C9.10637 1.54035 10.9528 1 13.1685 1C15.588 1 17.4981 1.63041 18.8989 2.89123C20.2996 4.15205 21 5.86316 21 8.02456V22.614H17.6382V18.5614H17.0652L17.6382 17.9825C17.6382 19.5263 17.0397 20.7485 15.8427 21.6491C14.6712 22.5497 13.1049 23 11.1438 23ZM11.9843 20.2597C13.6142 20.2597 14.9513 19.848 15.9955 19.0246C17.0397 18.2012 17.5618 17.1462 17.5618 15.8597V12.8491H11.1438C9.99775 12.8491 9.09363 13.1708 8.43146 13.814C7.76929 14.4573 7.4382 15.3322 7.4382 16.4386C7.4382 17.6222 7.83296 18.5614 8.62247 19.2561C9.43745 19.9251 10.5581 20.2597 11.9843 20.2597Z"
        fill="black" style="fill:black;fill-opacity:1;" />
</svg>