<svg width="24" height="24" viewBox="0 0 24 24" fill="none" xmlns="http://www.w3.org/2000/svg">
    <path
        d="M10.4136 24C8.11798 24 6.30846 23.3684 4.98507 22.1053C3.66169 20.8421 3 19.1439 3 17.0105C3 14.7368 3.72921 12.9825 5.18763 11.7474C6.64606 10.5123 8.71215 9.89474 11.3859 9.89474H16.936V7.91579C16.936 6.79298 16.5849 5.92281 15.8827 5.30526C15.1805 4.65965 14.2217 4.33684 13.0064 4.33684C11.8991 4.33684 10.9808 4.58947 10.2516 5.09474C9.52239 5.6 9.09026 6.28772 8.95522 7.1579H4.01279C4.25586 4.96842 5.20114 3.22807 6.84861 1.93684C8.49609 0.645615 10.6027 0 13.1684 0C15.8962 0 18.0434 0.715789 19.6098 2.14737C21.2033 3.55088 22 5.45965 22 7.87368V23.5789H17.0981V19.5368H16.2878L17.0981 18.4C17.0981 20.1123 16.4904 21.4737 15.2751 22.4842C14.0597 23.4947 12.4392 24 10.4136 24ZM12.0746 20.0421C13.506 20.0421 14.6674 19.6632 15.5586 18.9053C16.4769 18.1474 16.936 17.1649 16.936 15.9579V13.1368H11.467C10.4407 13.1368 9.61692 13.4456 8.99574 14.0632C8.37456 14.6807 8.06397 15.4947 8.06397 16.5053C8.06397 17.6 8.41507 18.4702 9.11727 19.1158C9.84648 19.7333 10.8323 20.0421 12.0746 20.0421Z"
        fill="black" style="fill:black;fill-opacity:1;" />
</svg>