<svg xmlns="http://www.w3.org/2000/svg" width="120" height="88" fill="none" viewBox="0 0 120 88">
    <path fill="#000"
        d="M97.24 45.64V24.8h4.47v3.98h1.17l-1.4 2.42c0-2.24.5-3.93 1.52-5.07 1-1.14 2.5-1.7 4.46-1.7 2.25 0 4.02.69 5.3 2.08 1.29 1.39 1.93 3.3 1.93 5.75v1.52h-4.96V32.6c0-1.33-.35-2.37-1.06-3.1a3.69 3.69 0 0 0-2.84-1.1c-1.23 0-2.2.37-2.87 1.1a4.49 4.49 0 0 0-.99 3.1v13.03h-4.73ZM80.03 46.02c-2.15 0-3.84-.57-5.07-1.7a5.92 5.92 0 0 1-1.86-4.59c0-2.04.68-3.62 2.05-4.73 1.36-1.11 3.29-1.67 5.79-1.67h5.18v-1.78c0-1-.32-1.79-.98-2.34a3.91 3.91 0 0 0-2.69-.87c-1.03 0-1.9.22-2.57.68a2.66 2.66 0 0 0-1.21 1.85h-4.62a6.58 6.58 0 0 1 2.65-4.7c1.54-1.15 3.5-1.73 5.9-1.73 2.55 0 4.56.64 6.02 1.93a6.4 6.4 0 0 1 2.24 5.15v14.12h-4.58V42h-.76l.76-1.02c0 1.54-.57 2.76-1.7 3.67a7.06 7.06 0 0 1-4.55 1.37Zm1.55-3.56c1.34 0 2.42-.34 3.26-1.03a3.23 3.23 0 0 0 1.28-2.65v-2.53h-5.1a3.2 3.2 0 0 0-2.32.83 2.9 2.9 0 0 0-.87 2.2c0 .98.33 1.76.99 2.34.68.56 1.6.84 2.76.84ZM61.42 46.02a5.7 5.7 0 0 1-4.1-1.44 5.35 5.35 0 0 1-1.5-4.02l1.05 1.1h-1.06v3.98H51.2V18h4.73v5.83l-.15 4.96h1.1l-1.07 1.1c0-1.7.5-3.02 1.52-3.98a5.6 5.6 0 0 1 4.09-1.47c2.1 0 3.77.72 5.03 2.15 1.26 1.44 1.9 3.39 1.9 5.83v5.64c0 2.43-.64 4.36-1.9 5.8a6.37 6.37 0 0 1-5.03 2.16Zm-1.67-4.1c1.21 0 2.16-.35 2.84-1.05.68-.71 1.02-1.72 1.02-3.03V32.6c0-1.3-.34-2.32-1.02-3.03a3.76 3.76 0 0 0-2.84-1.06c-1.18 0-2.12.37-2.8 1.1-.68.7-1.02 1.7-1.02 3v5.22c0 1.29.34 2.3 1.02 3.03.68.7 1.62 1.06 2.8 1.06ZM30.88 35.34v-4.4H43v4.4H30.88ZM11.93 46.02c-2.15 0-3.84-.57-5.07-1.7A5.92 5.92 0 0 1 5 39.72c0-2.04.68-3.62 2.04-4.73 1.37-1.11 3.3-1.67 5.8-1.67h5.18v-1.78c0-1-.32-1.79-.98-2.34a3.91 3.91 0 0 0-2.69-.87c-1.03 0-1.9.22-2.57.68a2.66 2.66 0 0 0-1.21 1.85H5.95a6.58 6.58 0 0 1 2.65-4.7c1.54-1.15 3.5-1.73 5.9-1.73 2.55 0 4.56.64 6.02 1.93a6.4 6.4 0 0 1 2.24 5.15v14.12h-4.59V42h-.75l.75-1.02c0 1.54-.56 2.76-1.7 3.67a7.06 7.06 0 0 1-4.54 1.37Zm1.55-3.56c1.34 0 2.42-.34 3.26-1.03a3.23 3.23 0 0 0 1.28-2.65v-2.53h-5.1a3.2 3.2 0 0 0-2.32.83 2.9 2.9 0 0 0-.87 2.2c0 .98.33 1.76.99 2.34.68.56 1.6.84 2.76.84Z"
        style="fill:#000;fill-opacity:1" />
    <rect width="51.89" height="17.64" x="63.11" y="53.28" fill="#000" rx="3"
        style="fill:#000;fill-opacity:1" />
    <rect width="26.98" height="17.64" x="5" y="53.28" fill="#000" fill-opacity=".75" rx="3"
        style="fill:#000;fill-opacity:.75" />
    <rect width="23.87" height="17.64" x="36.13" y="53.28" fill="#000" fill-opacity=".5" rx="3"
        style="fill:#000;fill-opacity:.5" />
</svg>