<svg width="1024" height="1024" viewBox="0 0 1024 1024" fill="none"
    xmlns="http://www.w3.org/2000/svg">
    <g filter="url(#filter0_d_6177_26)">
        <rect x="100" y="100" width="824" height="824" rx="184" fill="url(#paint0_linear_6177_26)" />
        <path
            d="M796.086 503.576V447.477H808.122V458.187H811.284L807.51 464.715C807.51 458.663 808.87 454.107 811.59 451.047C814.31 447.987 818.321 446.457 823.625 446.457C829.677 446.457 834.437 448.327 837.905 452.067C841.373 455.807 843.107 460.975 843.107 467.571V471.65H829.745V468.489C829.745 464.885 828.793 462.097 826.889 460.125C825.053 458.153 822.503 457.167 819.239 457.167C815.908 457.167 813.324 458.153 811.488 460.125C809.72 462.097 808.836 464.885 808.836 468.489V503.576H796.086Z"
            fill="black" style="fill:black;fill-opacity:1;" />
        <path
            d="M749.717 504.596C743.937 504.596 739.381 503.066 736.049 500.006C732.717 496.946 731.051 492.832 731.051 487.664C731.051 482.156 732.887 477.906 736.559 474.914C740.231 471.922 745.433 470.427 752.165 470.427H766.138V465.633C766.138 462.913 765.255 460.805 763.487 459.309C761.719 457.745 759.305 456.963 756.245 456.963C753.457 456.963 751.145 457.575 749.309 458.799C747.473 460.023 746.385 461.689 746.045 463.797H733.601C734.213 458.493 736.593 454.277 740.741 451.149C744.889 448.021 750.193 446.457 756.653 446.457C763.521 446.457 768.926 448.191 772.87 451.659C776.882 455.059 778.888 459.683 778.888 465.531V503.576H766.546V493.784H764.507L766.546 491.03C766.546 495.178 765.017 498.476 761.957 500.924C758.897 503.372 754.817 504.596 749.717 504.596ZM753.899 495.008C757.503 495.008 760.427 494.09 762.671 492.254C764.983 490.418 766.138 488.038 766.138 485.114V478.28H752.369C749.785 478.28 747.711 479.028 746.147 480.524C744.583 482.02 743.801 483.992 743.801 486.44C743.801 489.092 744.685 491.2 746.453 492.764C748.289 494.26 750.771 495.008 753.899 495.008Z"
            fill="black" style="fill:black;fill-opacity:1;" />
        <path
            d="M699.574 504.596C694.95 504.596 691.278 503.304 688.558 500.72C685.838 498.068 684.478 494.464 684.478 489.908L687.334 492.866H684.478V503.576H672.034V429.117H684.784V444.825L684.376 458.187H687.334L684.478 461.145C684.478 456.589 685.838 453.019 688.558 450.435C691.278 447.783 694.95 446.457 699.574 446.457C705.217 446.457 709.739 448.395 713.139 452.271C716.539 456.147 718.239 461.382 718.239 467.978V483.176C718.239 489.704 716.539 494.906 713.139 498.782C709.739 502.658 705.217 504.596 699.574 504.596ZM695.086 493.58C698.35 493.58 700.9 492.628 702.736 490.724C704.571 488.82 705.489 486.1 705.489 482.564V468.488C705.489 464.952 704.571 462.232 702.736 460.329C700.9 458.425 698.35 457.473 695.086 457.473C691.89 457.473 689.374 458.459 687.538 460.431C685.702 462.334 684.784 465.02 684.784 468.488V482.564C684.784 486.032 685.702 488.752 687.538 490.724C689.374 492.628 691.89 493.58 695.086 493.58Z"
            fill="black" style="fill:black;fill-opacity:1;" />
        <path
            d="M548.697 503.576L557.571 447.477H566.546L564.812 458.187H566.954L562.976 464.817C563.928 458.765 565.968 454.209 569.096 451.149C572.224 448.021 576.372 446.457 581.54 446.457C587.456 446.457 591.842 448.327 594.698 452.067C597.622 455.739 598.608 460.737 597.656 467.061L597.044 470.427H587.864L588.272 467.877C589.02 463.457 588.51 460.091 586.742 457.779C584.974 455.399 582.118 454.209 578.174 454.209C574.298 454.209 571.068 455.399 568.484 457.779C565.9 460.159 564.234 463.525 563.486 467.877L557.877 503.576H548.697Z"
            fill="black" fill-opacity="0.4" style="fill:black;fill-opacity:0.4;" />
        <path
            d="M506.611 504.596C502.191 504.596 498.519 503.712 495.595 501.944C492.672 500.176 490.564 497.694 489.272 494.498C488.048 491.234 487.776 487.46 488.456 483.176L490.802 467.877C491.55 463.525 493.046 459.751 495.289 456.555C497.601 453.359 500.491 450.877 503.959 449.109C507.495 447.341 511.473 446.457 515.893 446.457C520.313 446.457 523.985 447.341 526.909 449.109C529.901 450.877 532.009 453.359 533.233 456.555C534.525 459.751 534.797 463.525 534.049 467.877L532.519 477.77H498.247L497.431 483.176C496.751 487.596 497.261 490.996 498.961 493.376C500.729 495.688 503.687 496.844 507.835 496.844C511.371 496.844 514.261 496.232 516.505 495.008C518.817 493.716 520.415 491.812 521.299 489.296H530.479C529.595 492.424 528.031 495.144 525.787 497.456C523.543 499.7 520.755 501.468 517.423 502.76C514.159 503.984 510.555 504.596 506.611 504.596ZM524.563 471.65L525.073 467.877C525.821 463.457 525.311 460.057 523.543 457.677C521.843 455.297 518.885 454.107 514.669 454.107C510.521 454.107 507.189 455.297 504.673 457.677C502.157 460.057 500.525 463.457 499.777 467.877L499.369 470.835H525.379L524.563 471.65Z"
            fill="black" fill-opacity="0.4" style="fill:black;fill-opacity:0.4;" />
        <path
            d="M424.441 503.576L436.273 429.117H445.452L442.495 447.477L440.761 458.187H442.699L440.455 460.329C441.203 455.909 443.073 452.509 446.064 450.129C449.124 447.681 453 446.457 457.692 446.457C463.336 446.457 467.552 448.191 470.34 451.659C473.128 455.127 474.046 459.853 473.094 465.836L467.076 503.576H457.896L463.71 466.856C464.322 462.844 463.744 459.751 461.976 457.575C460.208 455.331 457.488 454.209 453.816 454.209C450.008 454.209 446.812 455.399 444.228 457.779C441.645 460.159 439.979 463.524 439.231 467.876L433.621 503.576H424.441Z"
            fill="black" fill-opacity="0.4" style="fill:black;fill-opacity:0.4;" />
        <path
            d="M390.618 503.576C385.79 503.576 382.22 502.284 379.908 499.7C377.664 497.116 376.916 493.478 377.664 488.786L382.866 455.841H367.056L368.382 447.477H384.192L386.64 432.177H395.82L393.372 447.477H415.811L414.485 455.841H392.046L386.844 488.786C386.164 493.07 387.864 495.212 391.944 495.212H407.243L405.917 503.576H390.618Z"
            fill="black" fill-opacity="0.4" style="fill:black;fill-opacity:0.4;" />
        <path
            d="M323.135 504.596C318.715 504.596 315.009 503.746 312.017 502.046C309.093 500.346 307.019 497.898 305.795 494.702C304.571 491.438 304.299 487.596 304.979 483.176L307.325 467.877C308.073 463.389 309.569 459.547 311.813 456.351C314.057 453.155 316.947 450.707 320.483 449.007C324.019 447.307 327.997 446.457 332.416 446.457C336.904 446.457 340.61 447.307 343.534 449.007C346.458 450.707 348.532 453.155 349.756 456.351C351.048 459.547 351.354 463.355 350.674 467.775L348.226 483.176C347.546 487.596 346.05 491.438 343.738 494.702C341.494 497.898 338.604 500.346 335.068 502.046C331.6 503.746 327.623 504.596 323.135 504.596ZM324.461 496.436C328.473 496.436 331.736 495.314 334.252 493.07C336.768 490.826 338.366 487.528 339.046 483.176L341.392 467.877C342.14 463.525 341.596 460.227 339.76 457.983C337.992 455.739 335.102 454.617 331.09 454.617C327.147 454.617 323.917 455.739 321.401 457.983C318.885 460.227 317.253 463.525 316.505 467.877L314.159 483.176C313.479 487.528 314.023 490.826 315.791 493.07C317.627 495.314 320.517 496.436 324.461 496.436Z"
            fill="black" fill-opacity="0.4" style="fill:black;fill-opacity:0.4;" />
        <path
            d="M240.964 503.576L249.838 447.477H259.018L257.284 458.187H259.222L256.978 460.329C257.726 455.909 259.596 452.509 262.588 450.129C265.648 447.681 269.524 446.457 274.216 446.457C279.86 446.457 284.075 448.191 286.863 451.659C289.651 455.127 290.569 459.853 289.617 465.837L283.599 503.576H274.42L280.234 466.857C280.846 462.845 280.268 459.751 278.5 457.575C276.732 455.331 274.012 454.209 270.34 454.209C266.532 454.209 263.336 455.399 260.752 457.779C258.168 460.159 256.502 463.525 255.754 467.877L250.144 503.576H240.964Z"
            fill="black" fill-opacity="0.4" style="fill:black;fill-opacity:0.4;" />
        <path
            d="M199.287 504.596C193.507 504.596 188.951 503.066 185.619 500.006C182.288 496.946 180.622 492.832 180.622 487.664C180.622 482.156 182.458 477.906 186.129 474.914C189.801 471.922 195.003 470.427 201.735 470.427H215.709V465.633C215.709 462.913 214.825 460.805 213.057 459.309C211.289 457.745 208.875 456.963 205.815 456.963C203.027 456.963 200.715 457.575 198.879 458.799C197.043 460.023 195.955 461.689 195.615 463.797H183.172C183.784 458.493 186.163 454.277 190.311 451.149C194.459 448.021 199.763 446.457 206.223 446.457C213.091 446.457 218.497 448.191 222.441 451.659C226.453 455.059 228.459 459.683 228.459 465.531V503.576H216.117V493.784H214.077L216.117 491.03C216.117 495.178 214.587 498.476 211.527 500.924C208.467 503.372 204.387 504.596 199.287 504.596ZM203.469 495.008C207.073 495.008 209.997 494.09 212.241 492.254C214.553 490.418 215.709 488.038 215.709 485.114V478.28H201.939C199.355 478.28 197.281 479.028 195.717 480.524C194.153 482.02 193.371 483.992 193.371 486.44C193.371 489.092 194.255 491.2 196.023 492.764C197.859 494.26 200.341 495.008 203.469 495.008Z"
            fill="black" style="fill:black;fill-opacity:1;" />
        <path
            d="M172.422 545.714C172.422 540.303 176.808 535.917 182.219 535.917H252.184C257.595 535.917 261.981 540.303 261.981 545.714V585.825C261.981 591.236 257.595 595.623 252.184 595.623H182.219C176.808 595.623 172.422 591.236 172.422 585.825V545.714Z"
            fill="#AD82CB"
            style="fill:#AD82CB;fill:color(display-p3 0.6767 0.5107 0.7958);fill-opacity:1;" />
        <path
            d="M274.42 545.714C274.42 540.303 278.806 535.917 284.217 535.917H346.718C352.129 535.917 356.516 540.303 356.516 545.714V585.825C356.516 591.236 352.129 595.623 346.718 595.623H284.217C278.806 595.623 274.42 591.236 274.42 585.825V545.714Z"
            fill="#6DB3CE"
            style="fill:#6DB3CE;fill:color(display-p3 0.4277 0.7034 0.8083);fill-opacity:1;" />
        <path
            d="M368.954 545.714C368.954 540.303 373.341 535.917 378.751 535.917H533.299C538.71 535.917 543.097 540.303 543.097 545.714V585.825C543.097 591.236 538.71 595.623 533.299 595.623H378.751C373.341 595.623 368.954 591.236 368.954 585.825V545.714Z"
            fill="#E78482"
            style="fill:#E78482;fill:color(display-p3 0.9059 0.5176 0.5098);fill-opacity:1;" />
        <path
            d="M555.536 545.714C555.536 540.303 559.922 535.917 565.333 535.917H722.369C727.78 535.917 732.166 540.303 732.166 545.714V585.825C732.166 591.236 727.78 595.623 722.369 595.623H565.333C559.922 595.623 555.536 591.236 555.536 585.825V545.714Z"
            fill="#7EDDDE"
            style="fill:#7EDDDE;fill:color(display-p3 0.4941 0.8667 0.8706);fill-opacity:1;" />
        <path
            d="M744.605 545.714C744.605 540.303 748.991 535.917 754.402 535.917H841.781C847.192 535.917 851.578 540.303 851.578 545.714V585.825C851.578 591.236 847.192 595.623 841.781 595.623H754.402C748.991 595.623 744.605 591.236 744.605 585.825V545.714Z"
            fill="#FFD484"
            style="fill:#FFD484;fill:color(display-p3 1.0000 0.8302 0.5167);fill-opacity:1;" />
    </g>
    <defs>
        <filter id="filter0_d_6177_26" x="78" y="89" width="868" height="868"
            filterUnits="userSpaceOnUse" color-interpolation-filters="sRGB">
            <feFlood flood-opacity="0" result="BackgroundImageFix" />
            <feColorMatrix in="SourceAlpha" type="matrix"
                values="0 0 0 0 0 0 0 0 0 0 0 0 0 0 0 0 0 0 127 0" result="hardAlpha" />
            <feOffset dy="11" />
            <feGaussianBlur stdDeviation="11" />
            <feColorMatrix type="matrix" values="0 0 0 0 0 0 0 0 0 0 0 0 0 0 0 0 0 0 0.05 0" />
            <feBlend mode="normal" in2="BackgroundImageFix" result="effect1_dropShadow_6177_26" />
            <feBlend mode="normal" in="SourceGraphic" in2="effect1_dropShadow_6177_26"
                result="shape" />
        </filter>
        <linearGradient id="paint0_linear_6177_26" x1="104.451" y1="100" x2="919.549" y2="924"
            gradientUnits="userSpaceOnUse">
            <stop stop-color="white" style="stop-color:white;stop-opacity:1;" />
            <stop offset="1" stop-color="#EEEEEE"
                style="stop-color:#EEEEEE;stop-color:color(display-p3 0.9333 0.9333 0.9333);stop-opacity:1;" />
        </linearGradient>
    </defs>
</svg>